<svg role="img" viewBox="0 0 30 30" xmlns="http://www.w3.org/2000/svg"
    id="Gradle--Streamline-Simple-Icons" height="24" width="24">
    <path
        d="M28.4 9.8l-7.5-7.5c-.1-.1-1.3-1.3-3.1-1.9-2.6-.9-5.1-.2-7.2 1.9L3 9.8c-.1.1-1.3 1.3-1.9 3.1C.2 15.5.9 18 3 20.1l7.5 7.5c.1.1 1.3 1.3 3.1 1.9.7.2 1.5.4 2.2.4 1.8 0 3.5-.8 5-2.2l7.5-7.5c.1-.1 1.3-1.3 1.9-3.1.9-2.6.2-5.2-1.8-7.3M16.3 4.5c.8.3 1.5.8 1.5.9L20 7.6l-4.3 4.3-4.3-4.3 2.2-2.2c.6-.6 1.4-1.3 2.7-.9M5.2 14.4c.3-.8.8-1.5.9-1.5l2.2-2.2 4.3 4.3-4.3 4.3L6 17.1c-.6-.6-1.2-1.5-.8-2.7m9.9 11.1c-.8-.3-1.5-.8-1.5-.9l-2.2-2.2 4.3-4.3 4.3 4.3-2.2 2.2c-.6.6-1.5 1.2-2.7.9m11.1-9.9c-.3.8-.8 1.5-.9 1.5l-2.2 2.2-4.4-4.3 4.3-4.3 2.2 2.2c.7.6 1.3 1.4 1 2.7"
        fill="#00a3e0"></path>
</svg>